Coordinates
version=1
nRows=54
nColumns=12
inDegrees=yes

Units are S.I. units (second, meters, Newtons, ...)
Angles are in degrees

endheader
time	SC_y	SC_z	SC_x	AC_y	AC_z	AC_x	GH_y	GH_z	GH_yy	EL_x	PS_y
       0.0               -59.0        0.04128          1.059          62.89         -8.318          1.748          54.69          20.77          51.58          32.73          63.44
  0.005633               -59.0        0.04296          1.068          62.88         -8.319          1.745          54.68          20.76          51.58          32.73          63.44
   0.01127               -59.0        0.04475          1.078          62.88         -8.319          1.743          54.68          20.76          51.59          32.74          63.44
    0.0169              -58.99        0.04665          1.089          62.88          -8.32           1.74          54.67          20.76          51.59          32.74          63.44
   0.02253              -58.99        0.04867            1.1          62.87         -8.321          1.737          54.67          20.76           51.6          32.75          63.44
   0.02816              -58.99        0.05083          1.112          62.87         -8.322          1.734          54.66          20.76           51.6          32.75          63.44
    0.0338              -58.98        0.05314          1.125          62.86         -8.323          1.731          54.66          20.76          51.61          32.76          63.44
   0.03943              -58.98         0.0556          1.139          62.86         -8.324          1.728          54.65          20.76          51.62          32.77          63.44
   0.04506              -58.97        0.05824          1.154          62.85         -8.325          1.724          54.64          20.76          51.63          32.77          63.44
    0.0507              -58.97        0.06107           1.17          62.84         -8.326           1.72          54.64          20.76          51.64          32.78          63.44
   0.05633              -58.96        0.06411          1.187          62.84         -8.327          1.716          54.63          20.75          51.64          32.79          63.44
   0.06196              -58.96        0.06738          1.205          62.83         -8.329          1.711          54.62          20.75          51.65           32.8          63.44
    0.0676              -58.95         0.0709          1.225          62.82          -8.33          1.706          54.61          20.75          51.67          32.81          63.44
   0.07323              -58.94        0.07471          1.246          62.81         -8.332          1.701           54.6          20.75          51.68          32.82          63.44
   0.07886              -58.94        0.07883          1.269           62.8         -8.334          1.695          54.59          20.75          51.69          32.83          63.44
   0.08449              -58.93         0.0833          1.294          62.79         -8.335          1.689          54.58          20.74           51.7          32.84          63.44
   0.09013              -58.92        0.08816          1.322          62.78         -8.337          1.682          54.57          20.74          51.72          32.85          63.44
   0.09576              -58.91        0.09345          1.351          62.77          -8.34          1.675          54.55          20.74          51.73          32.86          63.43
    0.1014               -58.9        0.09923          1.384          62.76         -8.342          1.667          54.54          20.74          51.75          32.88          63.43
     0.107              -58.89         0.1056          1.419          62.74         -8.345          1.658          54.52          20.73          51.77           32.9          63.43
    0.1127              -58.87         0.1125          1.458          62.73         -8.348          1.648          54.51          20.73          51.79          32.91          63.43
    0.1183              -58.86         0.1202          1.501          62.71         -8.351          1.638          54.49          20.73          51.81          32.93          63.43
    0.1239              -58.84         0.1286          1.549          62.69         -8.354          1.626          54.46          20.72          51.84          32.96          63.43
    0.1296              -58.83          0.138          1.601          62.67         -8.358          1.613          54.44          20.72          51.87          32.98          63.43
    0.1352              -58.81         0.1484          1.659          62.65         -8.363          1.599          54.41          20.71           51.9          33.01          63.43
    0.1408              -58.79           0.16          1.725          62.62         -8.367          1.582          54.38          20.71          51.93          33.04          63.42
    0.1465              -58.76          0.173          1.798          62.59         -8.373          1.564          54.35           20.7          51.97          33.07          63.42
    0.1521              -58.73         0.1876           1.88          62.56         -8.379          1.544          54.31          20.69          52.02          33.11          63.42
    0.1577               -58.7         0.2041          1.972          62.52         -8.386          1.521          54.27          20.68          52.07          33.15          63.42
    0.1634              -58.67         0.2229          2.078          62.48         -8.394          1.495          54.22          20.67          52.12           33.2          63.41
     0.169              -58.63         0.2443          2.198          62.43         -8.403          1.465          54.17          20.66          52.19          33.26          63.41
    0.1746              -58.58         0.2689          2.336          62.38         -8.413          1.431          54.11          20.65          52.26          33.32          63.41
    0.1803              -58.53         0.2973          2.495          62.31         -8.425          1.391          54.03          20.64          52.35          33.39           63.4
    0.1859              -58.47         0.3303           2.68          62.24         -8.438          1.345          53.95          20.62          52.45          33.48           63.4
    0.1915               -58.4         0.3688          2.897          62.15         -8.454          1.291          53.85           20.6          52.56          33.58          63.39
    0.1972              -58.32         0.4143          3.152          62.05         -8.473          1.228          53.73          20.58           52.7           33.7          63.38
    0.2028              -58.22         0.4684          3.455          61.93         -8.496          1.153          53.59          20.55          52.86          33.84          63.38
    0.2084               -58.1         0.5332          3.819          61.79         -8.523          1.063          53.43          20.52          53.06          34.01          63.37
    0.2141              -57.95         0.6116          4.259          61.61         -8.556         0.9534          53.23          20.48          53.29          34.21          63.35
    0.2197              -57.78         0.7073          4.796           61.4         -8.595         0.8201          52.98          20.43          53.58          34.46          63.34
    0.2253              -57.56         0.8255           5.46          61.13         -8.645         0.6555          52.68          20.37          53.94          34.77          63.32
     0.231              -57.29         0.9729          6.287           60.8         -8.706         0.4502           52.3          20.29          54.38          35.15           63.3
    0.2366              -56.94          1.159          7.329          60.38         -8.783         0.1917          51.83           20.2          54.94          35.63          63.27
    0.2422              -56.51          1.395          8.653          59.86         -8.882         -0.137          51.22          20.08          55.65          36.25          63.23
    0.2479              -55.95          1.697          10.35          59.18         -9.008        -0.5578          50.45          19.93          56.56          37.03          63.18
    0.2535              -55.23          2.084          12.52          58.31         -9.169         -1.098          49.45          19.73          57.73          38.04          63.12
    0.2591              -54.32           2.58           15.3           57.2         -9.376         -1.787          48.19          19.48          59.22          39.33          63.05
    0.2647              -53.17          3.202           18.8          55.81         -9.635         -2.654          46.59          19.16          61.09          40.95          62.95
    0.2704              -51.77          3.961          23.06          54.11         -9.951         -3.711          44.65          18.78          63.38          42.92          62.83
     0.276              -50.15           4.84          27.99          52.14         -10.32         -4.936          42.39          18.33          66.03          45.21          62.69
    0.2816              -48.39          5.793          33.34           50.0         -10.71         -6.262          39.95          17.85           68.9          47.68          62.55
    0.2873              -46.63          6.745          38.68          47.87         -11.11         -7.589          37.52          17.36          71.76          50.16           62.4
    0.2929              -45.01          7.625          43.62           45.9         -11.48         -8.814          35.26          16.92          74.41          52.45          62.26
    0.2985              -43.61          8.383          47.87           44.2         -11.79          -9.87          33.32          16.53           76.7          54.42          62.14
